<svg xmlns="http://www.w3.org/2000/svg" version="1.1" xmlns:xlink="http://www.w3.org/1999/xlink" xmlns:svgjs="http://svgjs.dev/svgjs" width="1080" height="1440" preserveAspectRatio="none" viewBox="0 0 1080 1440"><g mask="url(&quot;#SvgjsMask1034&quot;)" fill="none"><rect width="1080" height="1440" x="0" y="0" fill="rgba(23, 31, 111, 1)"></rect><path d="M902.669,187.608C936.43,188.12,971.177,175.244,987.324,145.59C1002.94,116.91,992.851,82.288,974.854,55.039C958.826,30.772,931.742,16.699,902.669,17.418C874.834,18.107,851.414,35.004,836.419,58.465C819.914,84.289,808.361,115.818,822.35,143.087C837.325,172.279,869.864,187.11,902.669,187.608" fill="rgba(44, 89, 139, 0.4)" class="triangle-float1"></path><path d="M130.45803454365878 156.93399758492632L375.2497825822239 298.57580622131087 379.5644791653533 51.38700452545166z" fill="rgba(44, 89, 139, 0.4)" class="triangle-float1"></path><path d="M560.8297295265781 69.64833160624443L337.92261313676835 129.37611343004423 397.6503949605682 352.283229819854 620.5575113503779 292.5554479960542z" fill="rgba(44, 89, 139, 0.4)" class="triangle-float2"></path><path d="M169.63 709.88 a204.14 204.14 0 1 0 408.28 0 a204.14 204.14 0 1 0 -408.28 0z" fill="rgba(44, 89, 139, 0.4)" class="triangle-float2"></path><path d="M724.7 279.84 a302.51 302.51 0 1 0 605.02 0 a302.51 302.51 0 1 0 -605.02 0z" fill="rgba(44, 89, 139, 0.4)" class="triangle-float2"></path><path d="M975.14,448.254C1003.431,448.063,1026.35,428.622,1041.153,404.511C1056.836,378.967,1067.897,347.457,1052.989,321.453C1038.027,295.356,1005.189,287.963,975.14,289.367C947.756,290.646,922.742,304.492,908.947,328.182C895.059,352.03,894.238,381.247,907.561,405.415C921.362,430.449,946.555,448.447,975.14,448.254" fill="rgba(44, 89, 139, 0.4)" class="triangle-float1"></path><path d="M184.21516831882298-135.69034188199853L-91.70911296271004-140.50661812703945-96.52538920775095 135.41766315449357 179.39889207378206 140.23393939953448z" fill="rgba(44, 89, 139, 0.4)" class="triangle-float2"></path><path d="M-182.22 1355.2 a255.9 255.9 0 1 0 511.8 0 a255.9 255.9 0 1 0 -511.8 0z" fill="rgba(44, 89, 139, 0.4)" class="triangle-float2"></path><path d="M220 1131.14 a203.63 203.63 0 1 0 407.26 0 a203.63 203.63 0 1 0 -407.26 0z" fill="rgba(44, 89, 139, 0.4)" class="triangle-float1"></path><path d="M836.5057748119825 886.4532671147219L963.2675749404782 718.2346766749201 795.0489845006764 591.4728765464245 668.2871843721807 759.6914669862263z" fill="rgba(44, 89, 139, 0.4)" class="triangle-float1"></path><path d="M328.717,1210.988C431.588,1217.235,525.084,1153.392,577.221,1064.491C630.004,974.489,637.274,863.347,585.832,772.572C533.699,680.577,434.18,618.337,328.717,625.98C232.971,632.919,171.142,719.454,128.95,805.682C92.599,879.973,90.95,962.995,127.515,1037.181C169.509,1122.383,233.903,1205.23,328.717,1210.988" fill="rgba(44, 89, 139, 0.4)" class="triangle-float1"></path><path d="M688.5341414010118 330.4705156203013L793.3761000728829 555.3048215519057 1018.2104060044873 450.46286288003455 913.3684473326161 225.62855694843017z" fill="rgba(44, 89, 139, 0.4)" class="triangle-float1"></path><path d="M595.55 1217.14 a282.96 282.96 0 1 0 565.92 0 a282.96 282.96 0 1 0 -565.92 0z" fill="rgba(44, 89, 139, 0.4)" class="triangle-float1"></path><path d="M171.7270536937131 188.21576920458978L-38.68420850801806 346.77202802394527 330.2833125130686 398.62703140632095z" fill="rgba(44, 89, 139, 0.4)" class="triangle-float3"></path><path d="M263.517,640.652C329.399,637.37,384.119,592.665,414.209,533.964C441.701,480.331,433.333,418.489,404.534,365.546C374.148,309.686,327.045,259.745,263.517,256.938C195.731,253.943,134.485,294.139,99.129,352.052C62.103,412.701,49.191,488.654,84.361,550.398C119.834,612.674,191.936,644.218,263.517,640.652" fill="rgba(44, 89, 139, 0.4)" class="triangle-float2"></path><path d="M496.2653229817232-18.884209574199648L292.6773164796071-69.64440063819676 318.3310331346695 261.11770464697594z" fill="rgba(44, 89, 139, 0.4)" class="triangle-float2"></path><path d="M204.0561867614492 195.75693567261914L417.98324027258354 324.2972774720614 332.59652856089144-18.17011783851524z" fill="rgba(44, 89, 139, 0.4)" class="triangle-float3"></path><path d="M752.862,1396.152C783.188,1398.732,817.318,1396.209,834.224,1370.9C852.552,1343.462,849.044,1306.464,831.395,1278.584C814.87,1252.479,783.754,1242.871,752.862,1242.372C720.858,1241.855,684.558,1247.567,669.81,1275.975C655.673,1303.207,674.957,1333.59,692.401,1358.832C706.832,1379.715,727.569,1394,752.862,1396.152" fill="rgba(44, 89, 139, 0.4)" class="triangle-float3"></path><path d="M679.004,1205.851C729.399,1204.548,782.023,1196.673,810.712,1155.221C843.442,1107.93,855.868,1043.415,825.016,994.879C795.626,948.643,733.758,946.156,679.004,948.017C628.502,949.733,577.414,962.313,549.226,1004.252C517.59,1051.321,504.249,1114.664,534.947,1162.351C564.048,1207.556,625.26,1207.241,679.004,1205.851" fill="rgba(44, 89, 139, 0.4)" class="triangle-float3"></path><path d="M871.7788210194467 26.600710325819772L709.2217332327367-10.928550486137308 671.6924724207796 151.6285373005727 834.2495602074896 189.15779811252978z" fill="rgba(44, 89, 139, 0.4)" class="triangle-float1"></path></g><defs><mask id="SvgjsMask1034"><rect width="1080" height="1440" fill="#ffffff"></rect></mask><style>
                @keyframes float1 {
                    0%{transform: translate(0, 0)}
                    50%{transform: translate(-10px, 0)}
                    100%{transform: translate(0, 0)}
                }

                .triangle-float1 {
                    animation: float1 5s infinite;
                }

                @keyframes float2 {
                    0%{transform: translate(0, 0)}
                    50%{transform: translate(-5px, -5px)}
                    100%{transform: translate(0, 0)}
                }

                .triangle-float2 {
                    animation: float2 4s infinite;
                }

                @keyframes float3 {
                    0%{transform: translate(0, 0)}
                    50%{transform: translate(0, -10px)}
                    100%{transform: translate(0, 0)}
                }

                .triangle-float3 {
                    animation: float3 6s infinite;
                }
            </style></defs></svg>